<?xml version="1.0" encoding="utf-8"?><!-- Generator: Adobe Illustrator 22.0.0, SVG Export Plug-In . SVG Version: 6.00 Build 0)  -->
<svg style="enable-background:new 0 0 1280 1024;" id="Layer_1" version="1.1" viewBox="0 0 1280 1024"
    x="0px" xmlns="http://www.w3.org/2000/svg" y="0px" xml:space="preserve">
<path d="M605.5,440.4c13.2-35.7,20.4-70.7,21.5-104.1c0.3-9.6-4.7-20.5-12.4-27c-9.1-7.8-21.8-9.6-34-4.2
	c-19.7,8.6-33.8,33.6-45.3,53.8c-0.6,1.1-1.3,2.4-1.9,3.5c-2.5-9.6-10.2-17.9-21-22.2c-2.5-10.3-12.4-18.4-24.6-20.5
	c-0.2-0.5-0.3-1.1-0.6-1.7c-2.5-7.2-10.2-12.5-18.8-13.5c-5.2-0.5-9.9,0.4-14.1,2.5c-3.6-1.6-7.5-2.5-11.7-2.5
	c-11.4,0-21.1,6.7-23.7,15.6c-12.5,2.9-21.8,12.5-21.9,23.7c-14.3,3.1-24.8,13.9-24.8,26.8c0,3.5,0.8,6.8,2.3,10.1
	c-3.8,3.8-5.8,8.7-5.8,13.6c0,3.1,0.8,6,2.2,8.6c-6.6-6.1-15.8-10.9-26.3-10.5c-3.6,0.1-6.6,2.6-6.4,5.7c0.2,3,3,5.3,6.6,5.3
	c0.2,0,0.5,0,0.6,0c6.3,0,12.1,3.5,16.1,7.4c-10.5,2.5-23.2,6.6-29,15.9c-3.6,5.6-4.1,12.4-1.7,20.3c-1.1,1.6-1.7,3.5-1.7,5.6
	l11.3,133.8c1.1,16.8,17.5,29.9,37.6,29.9h185.6c20.1,0,36.7-13.2,37.6-29.8l11.6-138.6c0.2-2-0.8-4-2.3-5.3
	C609.4,441.4,607.6,440.7,605.5,440.4z M538.8,378.2c2.7-4.1,5.5-9.2,8.6-14.5c9.9-17.6,23.5-41.8,39.3-48.6
	c7.2-3.1,13.2-2.5,18.5,2.1c5.8,5.1,8.8,13.4,8.6,19c-0.9,32.8-8.1,67.1-21.1,102.4c-0.5,1.1-1.4,3.5-2.7,6.7l-11.3,4.2
	c-0.3,0.1-0.5,0.2-0.8,0.4c-3.1,1.6-6.9,2.4-10.7,2.5c-3.8,0-7.4-0.9-10.7-2.5l-4.7-2.4c-5.3-2.6-11.4-4.1-17.5-4.1
	c-1.7,0-3.3,0.1-5,0.4c-4.5,0.5-9.1,1.7-13,3.7l-4.7,2.4c-2.5,1.2-5.5,2-8.5,2.2c0.2-0.5,0.3-0.9,0.5-1.2c1.9-5.2,3.9-10.4,5.8-15.5
	c0.8-1.9,1.6-3.7,2.3-5.6c1.7-4.1,3.4-8.1,5.5-12c0.8-1.7,1.6-3.5,2.3-5.1C525.5,400.6,531.9,389.2,538.8,378.2z M452,368.8
	c-1.4,0.2-3-0.5-3.3-1.7c-0.3-1.2,0.6-2.5,2.2-2.7l37.1-6.7c1.3,0,2.3,0.7,2.7,1.9c0.2,0.7-0.2,1.5-0.5,1.7c-0.2,0.2-0.8,0.9-1.7,1
	L452,368.8z M454.5,391.3c0.8-0.9,1.6-1.6,2.3-2.5c0.6-0.6,0.9-1.1,1.4-1.7c1.7-2.5,2-5.5,1.3-8.3l27.6-5.1c0.2,0.7,0.5,1.4,0.8,2.1
	c1.3,2.5,3.4,4.6,6.6,6.2c0.9,0.5,2,1,3.1,1.4c0.8,0.4,1.7,0.9,2.7,1.2c0.5,0.2,0.8,0.4,1.3,0.6c0.8,0.4,1.6,0.7,2.3,1.1
	c0.6,0.4,1.3,0.6,1.9,1c0.8,0.5,1.4,0.9,2.2,1.4c0.6,0.5,1.1,0.9,1.7,1.4c0.6,0.5,1.3,1,1.9,1.6c0.9,1,2,2.1,2.8,3.4
	c-2.8,5.2-5.5,10.4-8,15.8c-0.5,0.9-0.8,1.6-1.1,2.5c-7.4,1.5-14.3,4.5-22.9,9.6c-10.8,6.5-19,8.2-32.4,6.6l-4.1-15.4
	C442.9,403.7,448.9,397.4,454.5,391.3z M452.6,440.8c1.9,0.1,3.8,0.2,5.6,0.2c11.4,0,20.8-2.9,31.5-9.3c3.4-2,6.3-3.5,9.1-4.7
	c-0.6,1.5-1.1,2.9-1.7,4.3c-0.5,1-0.8,2.1-1.3,3.1c-1.9,5-3.8,9.9-5.6,14.9l-4.4-2.2c-5.3-2.6-11.4-4.1-17.5-4.1
	c-1.6,0-3.1,0.1-4.7,0.4c-0.5,0-0.8,0.1-1.1,0.1c-0.8,0.1-1.4,0.2-2.2,0.4c-2.2,0.4-4.2,1-6.3,1.7L452.6,440.8z M386.8,386.1l4.2-3
	l-2.8-4.1c-1.7-2.5-2.7-5.5-2.7-8.3c0-8.9,8.5-16.3,19.1-16.6l8-0.2l-1.9-6.6c-0.3-1.1-0.5-2.1-0.5-3.2c0-7.2,6.7-13.2,15.2-13.6
	l6.1-0.4v-5.6c0.2-5,5.2-8.9,11.1-8.9c3.4,0,6,1.4,7.4,2.5l4.5,3.5l4.4-3.6c2-1.6,4.7-2.5,7.7-2.2c3.6,0.4,6.7,2.6,7.8,5.6
	c0.3,1,0.5,2,0.3,3l-0.8,6.2h7.4c9.6,0,17.4,6.2,18.2,14.1l0.3,3.6l4.1,1.2c10.3,3.1,17.2,11.3,16.9,20.3c0,4-1.6,7.7-4.4,10.9
	c-4.4-3.1-9.1-5.2-13.2-7.1c-1.1-0.5-2-0.9-3-1.4c-0.3-0.1-0.6-0.4-0.8-1c-0.2-0.7,0.2-1.7,0.9-2.5c2.8-2.9,4.1-6.6,3.1-10.3
	l-0.8-3.1c-1.6-6.2-9.4-10.4-16.8-9.1l-1.9,0.4l0,0l-19.4,3.5l-18.8,3.5c-7.5,1.4-12.4,7.7-10.8,14l0.5,1.5l0,0l0,0l0.5,1.5
	c0.9,3.7,4.1,6.8,8.1,8.3c1.1,0.4,1.9,1,2.2,1.7c0.2,0.4,0,0.6-0.3,1.1c-0.6,0.7-1.4,1.5-2,2.2c-0.8,0.7-1.6,1.6-2.3,2.5
	c-0.3,0.2-0.5,0.5-0.8,0.7c-0.6,0.6-1.1,1.4-1.7,2c-0.3,0.4-0.6,0.7-0.8,1c-0.6,0.6-0.9,1.4-1.4,2.1c-0.3,0.4-0.6,0.7-0.8,1.1
	c-0.6,0.7-0.9,1.6-1.4,2.5c-0.2,0.4-0.5,0.6-0.6,1c-0.6,1.2-1.1,2.5-1.6,3.8c0,0.2,0,0.5-0.2,0.6c-0.3,1.1-0.6,2.4-0.8,3.5
	c0,0.5,0,1-0.2,1.5c0,0.6-0.2,1.2-0.2,2c-0.2-0.2-0.5-0.4-0.6-0.6c-0.5-0.5-0.8-0.9-1.3-1.4c-0.9-1-2-2-3-2.9
	c-0.5-0.5-0.9-0.9-1.4-1.2c-1.1-0.9-2.2-1.7-3.1-2.5c-0.5-0.2-0.8-0.6-1.1-0.9c-1.4-1-2.8-1.7-4.2-2.5c-0.5-0.2-0.8-0.4-1.3-0.6
	c-1.1-0.5-2-1-3.1-1.2c-0.6-0.2-1.1-0.4-1.7-0.5c-0.9-0.2-1.9-0.5-2.8-0.7c-0.6-0.1-1.1-0.2-1.7-0.4c-1.1-0.1-2.3-0.2-3.6-0.2
	c-0.3,0-0.6,0-0.8,0c-6.9,0-13.2,2.2-18.6,5.2c-0.6-1.2-0.9-2.6-0.9-4C382.1,391.2,383.9,388.1,386.8,386.1z M344.4,432
	c2.8-4.5,9.6-7.8,21.3-10.5c5.5-1.4,10.7-3.7,14.9-7.1c1.9-1.5,3.6-2.7,5.3-4c1.6-1,3-2,4.4-2.7h0.2c2.8-1.5,5.3-2.5,7.7-3.1
	c0,0,0.2,0,0.3,0c1.1-0.2,2.3-0.4,3.4-0.4c8.3,0,17.2,6.9,26.5,20.7c4.9,7.2,6.4,17.7,4.4,27c-0.5,0-0.9-0.1-1.4-0.1
	c-2.3-0.4-4.7-1-6.7-2.1l-4.7-2.4c-5.3-2.6-11.4-4.1-17.5-4.1c-1.7,0-3.3,0.1-5,0.4c-4.5,0.5-9.1,1.7-13,3.7l-2.3,1.1
	c-3.9,2-8.5,3-13,3c-4.5,0-9.1-1-13-2.9l-8.9-4.5c-1.1-0.5-2.5-1-3.8-1.1C342.4,438.3,342.7,434.9,344.4,432z M588.3,585.9
	c-0.6,10.9-11.4,19.5-24.4,19.5H378.4c-13,0-23.8-8.6-24.4-19.6L343,455l5.8,2.9c6.1,3.1,13.2,4.6,20.2,4.6c7,0,14.1-1.5,20.2-4.6
	l2.3-1.1c3.1-1.6,6.9-2.4,10.7-2.5c3.8,0,7.4,0.9,10.7,2.5l4.7,2.4c4.1,2.1,8.6,3.2,13.3,3.7c1.6,0.1,3.1,0.2,4.7,0.2
	c1.1,0,2.2,0,3.3-0.1c0.3,0,0.5-0.1,0.8-0.1c4.4-0.5,8.6-1.6,12.5-3.5c0.5-0.1,0.8-0.1,1.1-0.2l4.7-2.4c3.1-1.6,6.9-2.4,10.7-2.5
	c3.8,0,7.4,0.9,10.7,2.5l4.7,2.4c4.4,2.2,9.4,3.5,14.4,3.8c0.3,0,0.5,0,0.8,0.1l0,0c0.2,0,0.6,0,0.6,0s0.2,0,0.3,0
	c0.3,0,0.6,0,1.1,0c1.3,0,2.5,0,3.9-0.1c1.7-0.1,3.4-0.4,5.2-0.7c0.3,0,0.6-0.1,0.8-0.1c3-0.6,6-1.5,8.6-3l4.7-2.4
	c3.1-1.6,6.9-2.4,10.7-2.5c3.8,0,7.4,0.9,10.7,2.5l4.7,2.4c4.1,2,8.5,3.2,13,3.7c1.7,0.2,3.4,0.4,5,0.4c6,0,12.1-1.4,17.2-3.8
	l13-4.8c0.3-0.1,0.5-0.4,0.8-0.5l0.9-0.4L588.3,585.9z" />
</svg>
